# xmcd CD database file
#
# Track frame offsets:
#	150
#	15295
#	31543
#	46443
#	66305
#	80265
#	93430
#	109815
#	120978
#	135470
#	152740
#
# Disc length: 2166 seconds
#
# Revision: 2
# Processed by: cddbd v1.4PL0 Copyright (c) Steve Scherf et al.
# Submitted via: CDex 1.50Beta7
#
DISCID=7908740b
DTITLE=Freddie King - My Feeling For The Blues
DYEAR=1970
DGENRE=Blues
TTITLE0=Yonder Wall
TTITLE1=Stumble
TTITLE2=I Wonder Why
TTITLE3=Stormy Monday
TTITLE4=I Don't Know
TTITLE5=What'd I Say
TTITLE6=Ain't Nobody's Business What We Do
TTITLE7=You Don't Have To Go
TTITLE8=Woke Up This Morning
TTITLE9=The Things I Used To Do
TTITLE10=My Feeling For The Blues
EXTD=YEAR: 1970
EXTT0=
EXTT1=
EXTT2=
EXTT3=
EXTT4=
EXTT5=
EXTT6=
EXTT7=
EXTT8=
EXTT9=
EXTT10=
PLAYORDER=
